<?xml version="1.0" encoding="UTF-8"?>
<svg id="Laag_2" data-name="Laag 2" xmlns="http://www.w3.org/2000/svg" viewBox="0 0 51 51">
  <defs>
    <style>
      .cls-1 {
        stroke: #000;
        stroke-miterlimit: 10;
      }
    </style>
  </defs>
  <g id="Laag_1-2" data-name="Laag 1">
    <path class="cls-1" d="m25.5.5C11.69.5.5,11.69.5,25.5s11.19,25,25,25,25-11.19,25-25S39.31.5,25.5.5Zm14.81,26.77l-15.06,15.06-15.06-15.06.02-.02c-1.68-1.88-2.71-4.36-2.71-7.08,0-5.88,4.77-10.65,10.65-10.65,2.72,0,5.2,1.03,7.08,2.71l.02-.02.02.02c1.88-1.68,4.36-2.71,7.08-2.71,5.88,0,10.65,4.77,10.65,10.65,0,2.72-1.03,5.2-2.71,7.08l.02.02Z"/>
  </g>
</svg>